<svg xmlns="http://www.w3.org/2000/svg" width="1897" height="643.468" viewBox="0 0 1897 643.468">
  <path id="Intersection_1" data-name="Intersection 1" d="M1646.59,801l-103-103,277.186-277.186,114,114V801ZM931.1,801l-15-15,34-34-21.835-21.835L857.43,801H37.777V760.224l139-139,86.561,86.561L600.777,370.346,813.265,582.835,983.777,412.323,1170.453,599l-34,34,153,153-15,15Zm358.781-196.782,108.9-108.894,109.6,109.6L1399.484,713.82ZM1176.107,479l46.67-46.669L1269.446,479l-46.669,46.669Zm196-180,46.669-46.669L1465.446,299l-46.669,46.669Zm-945.8-75,66.469-66.468L559.246,224l-66.469,66.469Z" transform="translate(-37.777 -157.532)" fill="#11111c"/>
</svg>
